<svg width="20" height="21" viewBox="0 0 20 21" fill="none" xmlns="http://www.w3.org/2000/svg">
<path d="M5.63333 19.0057H14.3667C16.6667 19.0057 17.5833 17.5974 17.6917 15.8807L18.125 8.99741C18.2417 7.19741 16.8083 5.67241 15 5.67241C14.4917 5.67241 14.025 5.38075 13.7917 4.93075L13.1917 3.72241C12.8083 2.96408 11.8083 2.33908 10.9583 2.33908H9.05C8.19166 2.33908 7.19166 2.96408 6.80833 3.72241L6.20833 4.93075C5.975 5.38075 5.50833 5.67241 5 5.67241C3.19166 5.67241 1.75833 7.19741 1.875 8.99741L2.30833 15.8807C2.40833 17.5974 3.33333 19.0057 5.63333 19.0057Z" stroke="#2B2B2B" stroke-width="1.5" stroke-linecap="round" stroke-linejoin="round"/>
<path d="M8.75 7.33908H11.25" stroke="#2B2B2B" stroke-width="1.5" stroke-linecap="round" stroke-linejoin="round"/>
<path d="M10 15.6724C11.4917 15.6724 12.7083 14.4558 12.7083 12.9641C12.7083 11.4724 11.4917 10.2558 10 10.2558C8.50833 10.2558 7.29166 11.4724 7.29166 12.9641C7.29166 14.4558 8.50833 15.6724 10 15.6724Z" stroke="#292D32" stroke-width="1.5" stroke-linecap="round" stroke-linejoin="round"/>
</svg>
