<svg width="20" height="21" viewBox="0 0 20 21" fill="none" xmlns="http://www.w3.org/2000/svg">
<path d="M10.7417 5.57242H4.25832C2.83332 5.57242 1.66666 6.73907 1.66666 8.16407V17.6308C1.66666 18.8391 2.53333 19.3557 3.59166 18.7641L6.86666 16.9391C7.21666 16.7474 7.78333 16.7474 8.125 16.9391L11.4 18.7641C12.4583 19.3557 13.325 18.8391 13.325 17.6308V8.16407C13.3333 6.73907 12.1667 5.57242 10.7417 5.57242Z" stroke="#2B2B2B" stroke-width="1.5" stroke-linecap="round" stroke-linejoin="round"/>
<path d="M13.3333 8.16407V17.6308C13.3333 18.8391 12.4667 19.3474 11.4083 18.7641L8.13334 16.9391C7.78334 16.7474 7.21666 16.7474 6.86666 16.9391L3.59166 18.7641C2.53333 19.3474 1.66666 18.8391 1.66666 17.6308V8.16407C1.66666 6.73907 2.83332 5.57242 4.25832 5.57242H10.7417C12.1667 5.57242 13.3333 6.73907 13.3333 8.16407Z" stroke="#2B2B2B" stroke-width="1.5" stroke-linecap="round" stroke-linejoin="round"/>
<path d="M18.3333 4.93074V14.3974C18.3333 15.6057 17.4667 16.1141 16.4083 15.5307L13.3333 13.8141V8.16407C13.3333 6.73907 12.1667 5.57242 10.7417 5.57242H6.66666V4.93074C6.66666 3.50574 7.83332 2.33908 9.25832 2.33908H15.7417C17.1667 2.33908 18.3333 3.50574 18.3333 4.93074Z" stroke="#292D32" stroke-width="1.5" stroke-linecap="round" stroke-linejoin="round"/>
</svg>
