<svg width="20" height="21" viewBox="0 0 20 21" fill="none" xmlns="http://www.w3.org/2000/svg">
<path d="M7.525 18.7474L9.46667 17.1141C9.75834 16.8641 10.2417 16.8641 10.5333 17.1141L12.475 18.7474C12.925 18.9724 13.475 18.7474 13.6417 18.2641L14.0083 17.1557C14.1 16.8891 14.0083 16.4974 13.8083 16.2974L11.9167 14.3974C11.775 14.2641 11.6667 13.9974 11.6667 13.8057V11.4307C11.6667 11.0807 11.925 10.9141 12.25 11.0474L16.3417 12.8141C16.9833 13.0891 17.5083 12.7474 17.5083 12.0474V10.9724C17.5083 10.4141 17.0917 9.77241 16.575 9.55575L11.9167 7.54741C11.7833 7.48908 11.6667 7.31408 11.6667 7.16408V4.66408C11.6667 3.88075 11.0917 2.95575 10.3917 2.59741C10.1417 2.47241 9.85 2.47241 9.6 2.59741C8.9 2.95575 8.325 3.88908 8.325 4.67241V7.17241C8.325 7.32241 8.20834 7.49741 8.075 7.55575L3.425 9.56408C2.90834 9.77241 2.49167 10.4141 2.49167 10.9724V12.0474C2.49167 12.7474 3.01667 13.0891 3.65834 12.8141L7.75 11.0474C8.06667 10.9057 8.33334 11.0807 8.33334 11.4307V13.8057C8.33334 13.9974 8.225 14.2641 8.09167 14.3974L6.2 16.2974C6 16.4974 5.90834 16.8807 6 17.1557L6.36667 18.2641C6.51667 18.7474 7.06667 18.9807 7.525 18.7474Z" stroke="#2B2B2B" stroke-width="1.5" stroke-linecap="round" stroke-linejoin="round"/>
</svg>
