<svg width="29" height="30" viewBox="0 0 29 30" fill="none" xmlns="http://www.w3.org/2000/svg">
<path d="M14.79 12.3636V17.9791H22.5936C22.2509 19.785 21.2226 21.3142 19.6804 22.3423L24.3862 25.9937C27.1281 23.4629 28.7099 19.7456 28.7099 15.3297C28.7099 14.3015 28.6176 13.3128 28.4462 12.3638L14.79 12.3636Z" fill="#4285F4"/>
<path d="M6.66375 17.7599L5.60239 18.5723L1.84552 21.4987C4.23142 26.2309 9.1215 29.5 14.7896 29.5C18.7045 29.5 21.9868 28.2082 24.3859 25.9937L19.68 22.3423C18.3882 23.2123 16.7405 23.7396 14.7896 23.7396C11.0197 23.7396 7.81658 21.1956 6.66968 17.7683L6.66375 17.7599Z" fill="#34A853"/>
<path d="M1.8455 8.50134C0.856919 10.4522 0.290161 12.6536 0.290161 14.9999C0.290161 17.3462 0.856919 19.5476 1.8455 21.4984C1.8455 21.5115 6.67012 17.7548 6.67012 17.7548C6.38012 16.8848 6.20871 15.9621 6.20871 14.9997C6.20871 14.0373 6.38012 13.1147 6.67012 12.2447L1.8455 8.50134Z" fill="#FBBC05"/>
<path d="M14.7899 6.27362C16.9254 6.27362 18.8236 7.01179 20.3395 8.43544L24.4917 4.28323C21.974 1.93691 18.705 0.5 14.7899 0.5C9.1218 0.5 4.23142 3.7559 1.84552 8.50136L6.66999 12.245C7.81674 8.81769 11.02 6.27362 14.7899 6.27362Z" fill="#EA4335"/>
</svg>
