<svg width="20" height="21" viewBox="0 0 20 21" fill="none" xmlns="http://www.w3.org/2000/svg">
<path d="M10.8333 19.0058H4.16666C2.5 19.0058 1.66666 18.1724 1.66666 16.5058V9.8391C1.66666 8.17243 2.5 7.3391 4.16666 7.3391H8.33333V16.5058C8.33333 18.1724 9.16666 19.0058 10.8333 19.0058Z" stroke="#2B2B2B" stroke-width="1.5" stroke-miterlimit="10" stroke-linecap="round" stroke-linejoin="round"/>
<path d="M8.42499 4.00575C8.35832 4.25575 8.33333 4.53075 8.33333 4.83909V7.33909H4.16666V5.67242C4.16666 4.75575 4.91666 4.00575 5.83333 4.00575H8.42499Z" stroke="#2B2B2B" stroke-width="1.5" stroke-miterlimit="10" stroke-linecap="round" stroke-linejoin="round"/>
<path d="M11.6667 7.3391V11.5058" stroke="#2B2B2B" stroke-width="1.5" stroke-miterlimit="10" stroke-linecap="round" stroke-linejoin="round"/>
<path d="M15 7.3391V11.5058" stroke="#2B2B2B" stroke-width="1.5" stroke-miterlimit="10" stroke-linecap="round" stroke-linejoin="round"/>
<path d="M14.1667 14.8391H12.5C12.0417 14.8391 11.6667 15.2141 11.6667 15.6724V19.0058H15V15.6724C15 15.2141 14.625 14.8391 14.1667 14.8391Z" stroke="#2B2B2B" stroke-width="1.5" stroke-miterlimit="10" stroke-linecap="round" stroke-linejoin="round"/>
<path d="M5 11.5058V14.8391" stroke="#2B2B2B" stroke-width="1.5" stroke-miterlimit="10" stroke-linecap="round" stroke-linejoin="round"/>
<path d="M8.33334 16.5058V4.8391C8.33334 3.17243 9.16667 2.3391 10.8333 2.3391H15.8333C17.5 2.3391 18.3333 3.17243 18.3333 4.8391V16.5058C18.3333 18.1724 17.5 19.0058 15.8333 19.0058H10.8333C9.16667 19.0058 8.33334 18.1724 8.33334 16.5058Z" stroke="#2B2B2B" stroke-width="1.5" stroke-miterlimit="10" stroke-linecap="round" stroke-linejoin="round"/>
</svg>
