<svg width="22" height="22" viewBox="0 0 22 22" fill="none" xmlns="http://www.w3.org/2000/svg">
<path d="M5.5 9.16668V7.33334C5.5 4.29918 6.41667 1.83334 11 1.83334C15.5833 1.83334 16.5 4.29918 16.5 7.33334V9.16668" stroke="#787878" stroke-width="2" stroke-linecap="round" stroke-linejoin="round"/>
<path d="M11 16.9583C12.2656 16.9583 13.2916 15.9323 13.2916 14.6667C13.2916 13.401 12.2656 12.375 11 12.375C9.73433 12.375 8.70831 13.401 8.70831 14.6667C8.70831 15.9323 9.73433 16.9583 11 16.9583Z" stroke="#787878" stroke-width="2" stroke-linecap="round" stroke-linejoin="round"/>
<path d="M15.5833 20.1667H6.41665C2.74998 20.1667 1.83331 19.25 1.83331 15.5833V13.75C1.83331 10.0833 2.74998 9.16666 6.41665 9.16666H15.5833C19.25 9.16666 20.1666 10.0833 20.1666 13.75V15.5833C20.1666 19.25 19.25 20.1667 15.5833 20.1667Z" stroke="#787878" stroke-width="1.5" stroke-linecap="round" stroke-linejoin="round"/>
</svg>
