<svg width="20" height="21" viewBox="0 0 20 21" fill="none" xmlns="http://www.w3.org/2000/svg">
<path d="M15.8083 19.0057H4.14167C1.64167 19.0057 1.64167 17.8807 1.64167 16.5057V15.6724C1.64167 15.2141 2.01667 14.8391 2.475 14.8391H17.475C17.9333 14.8391 18.3083 15.2141 18.3083 15.6724V16.5057C18.3083 17.8807 18.3083 19.0057 15.8083 19.0057Z" stroke="#2B2B2B" stroke-width="1.5" stroke-linecap="round" stroke-linejoin="round"/>
<path d="M17.2667 11.5057V14.8391H2.725V11.5057C2.725 8.30575 4.98333 5.63075 7.99167 4.98908C8.44167 4.88908 8.90833 4.83908 9.39167 4.83908H10.6C11.0833 4.83908 11.5583 4.88908 12.0083 4.98908C15.0167 5.63908 17.2667 8.30575 17.2667 11.5057Z" stroke="#2B2B2B" stroke-width="1.5" stroke-linecap="round" stroke-linejoin="round"/>
<path d="M12.0833 4.42241C12.0833 4.62241 12.0583 4.80575 12.0083 4.98908C11.5583 4.88908 11.0833 4.83908 10.6 4.83908H9.39166C8.90833 4.83908 8.44166 4.88908 7.99166 4.98908C7.94166 4.80575 7.91666 4.62241 7.91666 4.42241C7.91666 3.27241 8.85 2.33908 10 2.33908C11.15 2.33908 12.0833 3.27241 12.0833 4.42241Z" stroke="#292D32" stroke-width="1.5" stroke-linecap="round" stroke-linejoin="round"/>
<path d="M12.5 9.83908H7.5" stroke="#292D32" stroke-width="1.5" stroke-linecap="round" stroke-linejoin="round"/>
</svg>
