<svg width="20" height="21" viewBox="0 0 20 21" fill="none" xmlns="http://www.w3.org/2000/svg">
<path d="M16.6667 7.54744V15.6724C16.6667 18.1724 15.175 19.0058 13.3333 19.0058H6.66667C4.825 19.0058 3.33334 18.1724 3.33334 15.6724V7.54744C3.33334 4.83911 4.825 4.21411 6.66667 4.21411C6.66667 4.73078 6.87498 5.19744 7.21665 5.53911C7.55831 5.88078 8.025 6.08911 8.54167 6.08911H11.4583C12.4917 6.08911 13.3333 5.24744 13.3333 4.21411C15.175 4.21411 16.6667 4.83911 16.6667 7.54744Z" stroke="#2B2B2B" stroke-width="1.5" stroke-linecap="round" stroke-linejoin="round"/>
<path d="M13.3333 4.21411C13.3333 5.24744 12.4917 6.08911 11.4583 6.08911H8.54166C8.025 6.08911 7.55831 5.88077 7.21664 5.53911C6.87498 5.19744 6.66666 4.73078 6.66666 4.21411C6.66666 3.18078 7.50833 2.33911 8.54166 2.33911H11.4583C11.975 2.33911 12.4417 2.54745 12.7834 2.88911C13.125 3.23078 13.3333 3.69744 13.3333 4.21411Z" stroke="#2B2B2B" stroke-width="1.5" stroke-linecap="round" stroke-linejoin="round"/>
<path d="M6.66666 11.5057H10" stroke="#292D32" stroke-width="1.5" stroke-linecap="round" stroke-linejoin="round"/>
<path d="M6.66666 14.8391H13.3333" stroke="#292D32" stroke-width="1.5" stroke-linecap="round" stroke-linejoin="round"/>
</svg>
