<svg width="20" height="21" viewBox="0 0 20 21" fill="none" xmlns="http://www.w3.org/2000/svg">
<path d="M10 13.1724C11.3807 13.1724 12.5 12.0531 12.5 10.6724C12.5 9.29171 11.3807 8.17242 10 8.17242C8.61929 8.17242 7.5 9.29171 7.5 10.6724C7.5 12.0531 8.61929 13.1724 10 13.1724Z" stroke="#2B2B2B" stroke-width="1.5" stroke-miterlimit="10" stroke-linecap="round" stroke-linejoin="round"/>
<path d="M1.66666 11.4058V9.93912C1.66666 9.07245 2.375 8.35579 3.25 8.35579C4.75833 8.35579 5.375 7.28912 4.61666 5.98079C4.18333 5.23079 4.44166 4.25579 5.2 3.82245L6.64166 2.99745C7.3 2.60579 8.15 2.83912 8.54166 3.49745L8.63333 3.65579C9.38333 4.96412 10.6167 4.96412 11.375 3.65579L11.4667 3.49745C11.8583 2.83912 12.7083 2.60579 13.3667 2.99745L14.8083 3.82245C15.5667 4.25579 15.825 5.23079 15.3917 5.98079C14.6333 7.28912 15.25 8.35579 16.7583 8.35579C17.625 8.35579 18.3417 9.06412 18.3417 9.93912V11.4058C18.3417 12.2725 17.6333 12.9891 16.7583 12.9891C15.25 12.9891 14.6333 14.0558 15.3917 15.3641C15.825 16.1225 15.5667 17.0891 14.8083 17.5225L13.3667 18.3475C12.7083 18.7391 11.8583 18.5058 11.4667 17.8475L11.375 17.6891C10.625 16.3808 9.39166 16.3808 8.63333 17.6891L8.54166 17.8475C8.15 18.5058 7.3 18.7391 6.64166 18.3475L5.2 17.5225C4.44166 17.0891 4.18333 16.1141 4.61666 15.3641C5.375 14.0558 4.75833 12.9891 3.25 12.9891C2.375 12.9891 1.66666 12.2725 1.66666 11.4058Z" stroke="#2B2B2B" stroke-width="1.5" stroke-miterlimit="10" stroke-linecap="round" stroke-linejoin="round"/>
</svg>
