<svg width="20" height="21" viewBox="0 0 20 21" fill="none" xmlns="http://www.w3.org/2000/svg">
<path d="M10.1333 9.73075C10.05 9.72241 9.95 9.72241 9.85834 9.73075C7.875 9.66408 6.3 8.03908 6.3 6.03908C6.3 3.99741 7.95 2.33908 10 2.33908C12.0417 2.33908 13.7 3.99741 13.7 6.03908C13.6917 8.03908 12.1167 9.66408 10.1333 9.73075Z" stroke="#2B2B2B" stroke-width="1.5" stroke-linecap="round" stroke-linejoin="round"/>
<path d="M5.96666 12.8058C3.95 14.1558 3.95 16.3558 5.96666 17.6974C8.25833 19.2308 12.0167 19.2308 14.3083 17.6974C16.325 16.3474 16.325 14.1474 14.3083 12.8058C12.025 11.2808 8.26666 11.2808 5.96666 12.8058Z" stroke="#2B2B2B" stroke-width="1.5" stroke-linecap="round" stroke-linejoin="round"/>
</svg>
